<svg width="1443" height="1443" viewBox="0 0 1443 1443" fill="none" xmlns="http://www.w3.org/2000/svg">
<circle cx="406" cy="1092" r="225" fill="#70D873"/>
<path d="M315.54 1117.76C315.467 1119.59 314.257 1120.88 311.91 1121.61L307.73 1119.63H306.52L305.09 1118.53H303.33L302.01 1116.33L300.91 1115.78L299.48 1113.25L297.5 1111.16V1110.28L296.62 1109.51L296.4 1107.75L294.97 1106.43L292.66 1101.26L291.67 1100.05L291.23 1096.97L289.8 1095.1L287.49 1094.77L284.96 1096.2L284.41 1095.65L282.65 1096.75L282.1 1095.54C281.733 1095.61 281.183 1095.65 280.45 1095.65C279.643 1095.65 279.057 1095.61 278.69 1095.54H277.81L275.5 1096.75L272.97 1096.42H272.53L270.77 1097.41L269.34 1096.86C267.947 1096.86 266.92 1096.71 266.26 1096.42H265.71L262.85 1097.74L261.75 1096.53L259.77 1095.98L259.33 1096.31C257.717 1098.44 256.543 1099.94 255.81 1100.82L254.05 1101.26C251.263 1105.29 249.503 1107.46 248.77 1107.75L248.33 1107.86L244.81 1112.15H244.37L242.17 1115.56L237.99 1117.87C237.257 1118.02 236.67 1118.09 236.23 1118.09C234.837 1118.09 233.517 1117.58 232.27 1116.55L233.59 1113.8V1112.15L234.03 1111.6L234.25 1109.4L237.66 1108.96L238.54 1108.41C239.42 1107.9 239.933 1107.13 240.08 1106.1C241.4 1105.73 242.207 1105 242.5 1103.9C244.48 1102.87 245.763 1101.26 246.35 1099.06L248.22 1098.4L250.97 1094.33C250.383 1093.52 249.943 1092.5 249.65 1091.25L251.96 1089.38V1087.29L256.25 1087.62L257.35 1087.07C257.717 1085.82 258.45 1084.94 259.55 1084.43L259.77 1082.34L262.08 1081.13C262.3 1080.98 262.703 1080.8 263.29 1080.58V1079.92C263.29 1079.26 263.437 1078.67 263.73 1078.16C265.27 1077.06 266.077 1075.56 266.15 1073.65L267.69 1073.32L268.24 1072.33L269.01 1072.22L271.1 1068.26L271.65 1068.48L272.53 1068.04V1065.07H273.3C275.133 1063.09 276.05 1061.81 276.05 1061.22L276.6 1060.78L276.05 1059.13C277.81 1057 279.24 1055.9 280.34 1055.83L282.43 1054.07L284.85 1056.49L287.93 1058.14L288.26 1061C288.627 1061.44 288.92 1061.88 289.14 1062.32C290.167 1063.57 290.753 1064.85 290.9 1066.17L291.56 1068.92L293.21 1071.34L294.2 1074.97L294.42 1076.73L296.4 1079.15L295.96 1079.92L296.84 1080.69V1082.89L297.06 1084.54C296.84 1085.64 296.73 1086.04 296.73 1085.75L297.28 1086.3C297.28 1086.3 297.5 1086.59 297.94 1087.18C298.893 1087.11 299.59 1087 300.03 1086.85H303.33C303.917 1087 304.357 1087.07 304.65 1087.07C305.09 1087.07 305.53 1086.92 305.97 1086.63C306.483 1086.26 307.253 1086.08 308.28 1086.08C309.013 1086.08 310.113 1086.45 311.58 1087.18L314.88 1087.4C315.027 1087.99 315.1 1088.43 315.1 1088.72C315.1 1089.82 314.55 1090.66 313.45 1091.25L311.8 1090.7L308.72 1092.9L306.19 1092.57L305.09 1093.12L302.67 1093.34V1092.9L299.81 1093.56L299.7 1094.22L299.92 1096.75L301.35 1098.73L301.57 1100.71L304.1 1104.23L303.88 1105.44L304.87 1106.43L307.51 1110.5L309.38 1112.37L309.82 1113.25L311.8 1114.24L312.57 1116L315.54 1117.76ZM288.37 1088.06H288.26L287.05 1086.85L288.37 1085.75C287.783 1085.24 287.49 1084.47 287.49 1083.44L286.72 1083L286.17 1078.49L284.85 1076.62L284.52 1074.75L284.3 1074.31H283.53L283.2 1070.35L282.21 1068.92L281.66 1068.7L281.33 1068.26L280.89 1069.03L278.25 1072.33L277.37 1074.2L275.17 1076.18L274.73 1078.16L272.2 1079.26C271.833 1081.46 270.733 1083.04 268.9 1083.99L268.13 1086.19L266.7 1087.62H267.69C269.01 1088.06 270.11 1088.28 270.99 1088.28H271.43C271.87 1088.06 272.31 1087.95 272.75 1087.95C273.263 1087.95 273.85 1088.1 274.51 1088.39L274.95 1088.5C275.39 1088.43 276.087 1088.39 277.04 1088.39C278.213 1088.39 279.093 1088.43 279.68 1088.5L283.53 1088.06L286.06 1089.38C287.307 1088.87 288.04 1088.35 288.26 1087.84C288.26 1087.91 288.297 1087.95 288.37 1087.95C288.37 1087.95 288.37 1087.99 288.37 1088.06ZM364.332 1099.72L363.012 1103.02L363.892 1105.22L363.452 1105.88L363.012 1107.64L362.132 1109.18L361.692 1109.4L361.472 1111.49L359.492 1111.71C358.465 1112.66 357.402 1113.43 356.302 1114.02L355.642 1113.91L353.992 1114.46L353.002 1114.57L350.912 1115.34L348.492 1114.24L348.162 1114.02L346.292 1114.13L346.732 1114.35L343.652 1113.91L340.902 1114.57L339.802 1113.58L337.492 1113.8L336.612 1113.14C336.539 1113.14 336.245 1113.18 335.732 1113.25V1113.91C335.732 1114.57 335.622 1115.23 335.402 1115.89L335.732 1117.98L334.852 1119.08C334.999 1120.69 335.072 1121.9 335.072 1122.71L334.742 1125.46L335.182 1129.64L334.302 1130.74L334.742 1132.39L334.412 1133.49L335.072 1133.82V1135.47C335.219 1135.91 335.292 1136.24 335.292 1136.46C335.292 1137.12 334.889 1137.67 334.082 1138.11L334.522 1139.65L333.972 1140.53L333.752 1144.93C333.532 1150.06 332.395 1152.63 330.342 1152.63C329.902 1152.63 328.619 1152.34 326.492 1151.75L326.822 1148.45L326.162 1143.61L327.262 1141.63L327.372 1139.21L326.932 1135.91L327.812 1134.48L326.822 1131.95L327.592 1130.63L326.932 1128.43L327.812 1126.45C327.665 1126.01 327.372 1125.61 326.932 1125.24C326.565 1124.87 326.382 1124.62 326.382 1124.47C326.382 1124.25 326.639 1124.03 327.152 1123.81C327.079 1123.59 327.042 1123.22 327.042 1122.71C327.042 1121.76 327.262 1120.51 327.702 1118.97L327.042 1117.87L327.372 1116.44L326.602 1115.45L327.592 1114.24L327.152 1111.05L327.812 1106.54L327.042 1105.11L328.252 1103.02L326.932 1101.81L327.702 1099.72L326.932 1099.17L327.042 1097.3L327.702 1094.99V1094.55L327.812 1094.11V1092.9L327.922 1092.46L327.372 1090.7L327.922 1088.83L327.372 1087.4L327.812 1085.75L327.372 1085.31L327.702 1083.11L327.372 1081.9L327.592 1080.8L327.262 1080.03L323.302 1081.79V1081.13L322.532 1081.24L321.322 1082.34H320.332L319.012 1084.1L317.912 1083.66L317.362 1084.76C313.769 1082.63 311.972 1080.95 311.972 1079.7C311.972 1078.82 312.302 1078.09 312.962 1077.5L312.852 1075.85C314.905 1074.68 316.849 1074.05 318.682 1073.98L319.452 1073.21L322.972 1071.78L323.742 1071.01L326.822 1071.23L327.372 1071.01L328.362 1067.16L331.002 1067.71L332.762 1070.57L333.752 1069.58L335.732 1071.01C336.685 1071.01 337.602 1071.19 338.482 1071.56L339.032 1072.55L339.802 1072.22L340.682 1072.88C341.195 1072.88 341.599 1072.92 341.892 1072.99L341.782 1073.65L344.202 1072.88L345.412 1074.2L347.502 1074.86L348.932 1076.62L351.572 1078.27L351.682 1078.49L353.772 1079.15V1079.81C354.359 1080.25 354.799 1080.84 355.092 1081.57L355.972 1082.12L356.632 1083.33H357.952V1085.53L358.722 1086.3L358.942 1087.07L360.042 1087.29C360.189 1088.98 360.665 1090.41 361.472 1091.58V1092.35L362.572 1093.45L362.352 1095.21L363.232 1097.19L363.562 1099.5L364.332 1099.72ZM356.082 1101.37L355.972 1100.82L356.082 1100.38L355.422 1098.4L355.862 1097.41L355.422 1096.53L355.312 1095.43L354.432 1093.67L353.992 1092.46L352.342 1089.6L351.022 1088.5L350.252 1086.63L349.262 1086.19L347.502 1083.88L345.742 1084.1L344.422 1082.34L343.322 1082.56L342.552 1081.13L342.112 1081.02H340.572L339.472 1081.57L338.592 1080.69L337.492 1080.91L337.052 1080.14L335.072 1079.81L335.182 1081.13L334.962 1083.22L335.402 1084.43L336.942 1085.86L335.732 1088.5L335.842 1090.15L335.292 1093.45C335.512 1094.84 335.952 1096.02 336.612 1096.97L336.172 1098.18C336.245 1098.25 336.282 1098.33 336.282 1098.4C336.282 1098.62 335.989 1098.95 335.402 1099.39L336.172 1100.38L335.622 1101.7L335.402 1103.13L335.732 1104.67L335.622 1106.1H337.932C338.225 1105.95 338.629 1105.88 339.142 1105.88C339.802 1105.88 340.389 1106.1 340.902 1106.54C340.975 1106.54 341.122 1106.5 341.342 1106.43C341.489 1106.43 341.599 1106.43 341.672 1106.43C341.892 1106.43 342.295 1106.5 342.882 1106.65C343.322 1106.43 343.725 1106.32 344.092 1106.32C344.679 1106.32 345.229 1106.47 345.742 1106.76H346.732L347.612 1106.98L349.812 1106.32L351.572 1107.42C352.232 1107.64 352.489 1107.75 352.342 1107.75L354.432 1105.66L354.652 1104.12L355.202 1103.9L354.872 1103.02L355.642 1102.14L356.082 1101.37ZM415.787 1099.72L414.467 1103.02L415.347 1105.22L414.907 1105.88L414.467 1107.64L413.587 1109.18L413.147 1109.4L412.927 1111.49L410.947 1111.71C409.92 1112.66 408.857 1113.43 407.757 1114.02L407.097 1113.91L405.447 1114.46L404.457 1114.57L402.367 1115.34L399.947 1114.24L399.617 1114.02L397.747 1114.13L398.187 1114.35L395.107 1113.91L392.357 1114.57L391.257 1113.58L388.947 1113.8L388.067 1113.14C387.994 1113.14 387.7 1113.18 387.187 1113.25V1113.91C387.187 1114.57 387.077 1115.23 386.857 1115.89L387.187 1117.98L386.307 1119.08C386.454 1120.69 386.527 1121.9 386.527 1122.71L386.197 1125.46L386.637 1129.64L385.757 1130.74L386.197 1132.39L385.867 1133.49L386.527 1133.82V1135.47C386.674 1135.91 386.747 1136.24 386.747 1136.46C386.747 1137.12 386.344 1137.67 385.537 1138.11L385.977 1139.65L385.427 1140.53L385.207 1144.93C384.987 1150.06 383.85 1152.63 381.797 1152.63C381.357 1152.63 380.074 1152.34 377.947 1151.75L378.277 1148.45L377.617 1143.61L378.717 1141.63L378.827 1139.21L378.387 1135.91L379.267 1134.48L378.277 1131.95L379.047 1130.63L378.387 1128.43L379.267 1126.45C379.12 1126.01 378.827 1125.61 378.387 1125.24C378.02 1124.87 377.837 1124.62 377.837 1124.47C377.837 1124.25 378.094 1124.03 378.607 1123.81C378.534 1123.59 378.497 1123.22 378.497 1122.71C378.497 1121.76 378.717 1120.51 379.157 1118.97L378.497 1117.87L378.827 1116.44L378.057 1115.45L379.047 1114.24L378.607 1111.05L379.267 1106.54L378.497 1105.11L379.707 1103.02L378.387 1101.81L379.157 1099.72L378.387 1099.17L378.497 1097.3L379.157 1094.99V1094.55L379.267 1094.11V1092.9L379.377 1092.46L378.827 1090.7L379.377 1088.83L378.827 1087.4L379.267 1085.75L378.827 1085.31L379.157 1083.11L378.827 1081.9L379.047 1080.8L378.717 1080.03L374.757 1081.79V1081.13L373.987 1081.24L372.777 1082.34H371.787L370.467 1084.1L369.367 1083.66L368.817 1084.76C365.224 1082.63 363.427 1080.95 363.427 1079.7C363.427 1078.82 363.757 1078.09 364.417 1077.5L364.307 1075.85C366.36 1074.68 368.304 1074.05 370.137 1073.98L370.907 1073.21L374.427 1071.78L375.197 1071.01L378.277 1071.23L378.827 1071.01L379.817 1067.16L382.457 1067.71L384.217 1070.57L385.207 1069.58L387.187 1071.01C388.14 1071.01 389.057 1071.19 389.937 1071.56L390.487 1072.55L391.257 1072.22L392.137 1072.88C392.65 1072.88 393.054 1072.92 393.347 1072.99L393.237 1073.65L395.657 1072.88L396.867 1074.2L398.957 1074.86L400.387 1076.62L403.027 1078.27L403.137 1078.49L405.227 1079.15V1079.81C405.814 1080.25 406.254 1080.84 406.547 1081.57L407.427 1082.12L408.087 1083.33H409.407V1085.53L410.177 1086.3L410.397 1087.07L411.497 1087.29C411.644 1088.98 412.12 1090.41 412.927 1091.58V1092.35L414.027 1093.45L413.807 1095.21L414.687 1097.19L415.017 1099.5L415.787 1099.72ZM407.537 1101.37L407.427 1100.82L407.537 1100.38L406.877 1098.4L407.317 1097.41L406.877 1096.53L406.767 1095.43L405.887 1093.67L405.447 1092.46L403.797 1089.6L402.477 1088.5L401.707 1086.63L400.717 1086.19L398.957 1083.88L397.197 1084.1L395.877 1082.34L394.777 1082.56L394.007 1081.13L393.567 1081.02H392.027L390.927 1081.57L390.047 1080.69L388.947 1080.91L388.507 1080.14L386.527 1079.81L386.637 1081.13L386.417 1083.22L386.857 1084.43L388.397 1085.86L387.187 1088.5L387.297 1090.15L386.747 1093.45C386.967 1094.84 387.407 1096.02 388.067 1096.97L387.627 1098.18C387.7 1098.25 387.737 1098.33 387.737 1098.4C387.737 1098.62 387.444 1098.95 386.857 1099.39L387.627 1100.38L387.077 1101.7L386.857 1103.13L387.187 1104.67L387.077 1106.1H389.387C389.68 1105.95 390.084 1105.88 390.597 1105.88C391.257 1105.88 391.844 1106.1 392.357 1106.54C392.43 1106.54 392.577 1106.5 392.797 1106.43C392.944 1106.43 393.054 1106.43 393.127 1106.43C393.347 1106.43 393.75 1106.5 394.337 1106.65C394.777 1106.43 395.18 1106.32 395.547 1106.32C396.134 1106.32 396.684 1106.47 397.197 1106.76H398.187L399.067 1106.98L401.267 1106.32L403.027 1107.42C403.687 1107.64 403.944 1107.75 403.797 1107.75L405.887 1105.66L406.107 1104.12L406.657 1103.9L406.327 1103.02L407.097 1102.14L407.537 1101.37ZM517.169 1081.46L516.289 1083.77L514.529 1084.98L512.659 1083.66H511.779C511.192 1083.81 510.716 1083.88 510.349 1083.88H509.799L508.699 1084.21L507.929 1083.77C507.562 1083.84 507.012 1083.88 506.279 1083.88C505.619 1083.88 505.142 1083.84 504.849 1083.77L500.449 1084.43L499.129 1083.99C498.176 1083.99 497.406 1084.03 496.819 1084.1L496.159 1085.75L495.059 1087.18L494.839 1091.03L493.629 1092.24L492.859 1094.88L491.979 1095.43C491.906 1095.8 491.722 1096.13 491.429 1096.42C491.576 1096.42 491.759 1096.46 491.979 1096.53C492.272 1096.6 492.492 1096.64 492.639 1096.64C492.859 1096.57 493.152 1096.53 493.519 1096.53C494.032 1096.53 494.546 1096.68 495.059 1096.97H496.049L498.139 1096.75L499.349 1097.3L500.229 1096.97L501.659 1097.74L501.549 1097.3C502.429 1097.15 503.126 1097.08 503.639 1097.08C504.739 1097.08 505.839 1097.19 506.939 1097.41C507.819 1097.19 508.699 1097.08 509.579 1097.08C510.092 1097.08 510.862 1097.15 511.889 1097.3L513.759 1101.92L511.449 1102.58L509.909 1103.79L508.039 1102.47H507.049C506.462 1102.62 506.059 1102.69 505.839 1102.69C505.766 1102.69 505.656 1102.65 505.509 1102.58C505.289 1102.58 505.142 1102.58 505.069 1102.58L504.079 1103.02L503.199 1102.58C502.979 1102.58 502.686 1102.58 502.319 1102.58C501.952 1102.65 501.696 1102.69 501.549 1102.69C501.329 1102.69 501.072 1102.65 500.779 1102.58C500.486 1102.58 500.266 1102.58 500.119 1102.58L495.719 1103.24L494.399 1102.8C492.786 1102.8 491.099 1103.02 489.339 1103.46L488.679 1103.9L488.459 1104.34L488.789 1104.89L488.129 1105.88L487.029 1106.76L486.479 1108.74L485.049 1112.15L484.719 1114.46L483.729 1116.22L483.509 1119.3L481.639 1122.16L480.319 1126.23L480.099 1128.76L477.239 1133.27L472.179 1131.29L473.829 1126.67L473.719 1124.58L474.599 1122.93L474.819 1121.17L475.479 1120.84L475.589 1119.3L476.139 1117.54L478.009 1112.7C478.302 1111.09 478.559 1109.95 478.779 1109.29L479.879 1108.19L479.989 1106.21L480.979 1103.9L480.869 1102.91C480.136 1103.13 479.549 1103.46 479.109 1103.9L478.999 1103.02C477.092 1103.31 476.212 1103.46 476.359 1103.46L474.709 1103.02L471.519 1104.01L468.879 1103.24L468.659 1103.57L467.999 1105.88L466.789 1106.76L466.239 1108.74L464.809 1112.15L464.369 1114.46L463.599 1116.22L463.269 1119.3L461.399 1122.16L460.079 1126.23L459.859 1128.76L456.999 1133.27L451.939 1131.29L453.589 1126.67L453.479 1124.58L454.359 1122.93L454.579 1121.17L455.239 1120.84L455.349 1119.3L455.899 1117.54L457.549 1113.36L458.539 1109.29L459.529 1108.19L459.749 1106.21L460.739 1103.9L459.199 1103.24L458.759 1103.35L456.889 1103.79L455.129 1103.13L452.599 1103.57L450.949 1104.34L448.969 1103.02L447.209 1101.81L447.099 1099.94C446.952 1099.65 446.879 1098.91 446.879 1097.74C447.906 1097.08 448.786 1096.75 449.519 1096.75L451.719 1096.09L453.919 1095.76L456.229 1096.2L458.209 1095.98L461.619 1096.42L463.929 1096.09L464.369 1095.32L464.479 1094.55L464.259 1094.22L464.369 1093.67H464.699V1092.02C464.846 1091.58 465.139 1090.77 465.579 1089.6L466.019 1089.38L465.909 1087.18L467.119 1086.74V1086.3C467.119 1085.71 467.302 1085.13 467.669 1084.54C467.302 1084.61 466.642 1084.8 465.689 1085.09L463.819 1084.43L461.619 1084.98L459.859 1084.43L457.329 1084.65L455.679 1085.42L453.589 1084.1L451.829 1083.11L451.719 1081.24C451.572 1080.8 451.499 1080.4 451.499 1080.03C451.499 1079.96 451.536 1079.77 451.609 1079.48C451.609 1079.26 451.609 1079.08 451.609 1078.93C452.709 1078.27 453.589 1077.94 454.249 1077.94L456.339 1077.28L458.539 1076.95L460.959 1077.5L462.829 1077.28L466.239 1077.72L468.879 1077.28L470.749 1077.5L471.299 1075.08L473.719 1070.13L473.829 1066.06L475.919 1065.07L476.359 1061.66L478.119 1058.69C478.486 1058.32 480.062 1057.26 482.849 1055.5L486.809 1059.02L485.049 1063.75L482.739 1068.7L481.749 1070.46L480.869 1073.43L478.889 1077.72L479.439 1077.83H480.099C480.319 1077.83 481.162 1077.9 482.629 1078.05C483.216 1077.83 483.912 1077.72 484.719 1077.72C485.379 1077.72 485.892 1077.76 486.259 1077.83L486.589 1078.16L491.319 1077.72C491.319 1077.13 491.392 1076.25 491.539 1075.08L493.959 1070.13L494.069 1066.06L496.049 1065.07L496.599 1061.66L498.359 1058.69C499.312 1057.81 500.889 1056.75 503.089 1055.5L507.049 1059.02L505.289 1063.75L502.979 1068.7L501.989 1070.46L501.109 1073.43L499.129 1077.83L499.789 1078.16H500.669L502.759 1078.05L504.079 1078.49L504.959 1078.27L506.279 1078.93V1078.6C506.792 1078.45 507.636 1078.38 508.809 1078.38C509.982 1078.38 510.899 1078.45 511.559 1078.6C512.219 1078.38 512.769 1078.27 513.209 1078.27C514.529 1078.27 515.666 1078.34 516.619 1078.49L517.169 1081.46ZM487.689 1084.54C486.222 1084.25 485.159 1084.1 484.499 1084.1C483.472 1084.1 482.299 1084.28 480.979 1084.65L479.439 1084.32L476.139 1085.2L475.919 1085.75L474.819 1087.18L474.599 1091.03L473.389 1092.24L472.619 1094.88L471.739 1095.43L471.409 1096.31L472.179 1096.75L473.389 1096.42H474.599C475.992 1096.42 477.129 1096.57 478.009 1096.86C478.449 1096.64 479.072 1096.53 479.879 1096.53C480.026 1096.53 480.282 1096.53 480.649 1096.53C481.016 1096.6 481.309 1096.64 481.529 1096.64L481.969 1096.86L483.729 1096.75L484.719 1095.32V1093.45L484.939 1094V1093.45C484.939 1092.2 485.232 1090.92 485.819 1089.6L486.259 1089.38L486.149 1087.18L487.359 1086.74C487.359 1085.71 487.469 1084.98 487.689 1084.54ZM572.046 1113.03C572.046 1114.2 571.313 1115.12 569.846 1115.78L565.006 1115.89L560.496 1116.77L557.196 1116.11L555.656 1115.89L556.206 1115.34L554.226 1116.22C553.2 1116.07 552.393 1116 551.806 1116C551.586 1115.78 551.403 1115.3 551.256 1114.57L549.386 1116.22L547.186 1116C546.893 1116 546.526 1116.04 546.086 1116.11C545.646 1116.11 545.316 1116.11 545.096 1116.11C544.363 1116.11 543.41 1116.04 542.236 1115.89L539.376 1116.33L539.156 1115.78L537.946 1116L536.076 1116.11L533.876 1117.21L533.326 1116.66C532.813 1116.88 532.19 1116.99 531.456 1116.99H530.686L530.356 1116.55C529.843 1116.77 529.33 1116.88 528.816 1116.88C528.303 1116.88 527.753 1116.77 527.166 1116.55C527.02 1116.62 526.8 1116.7 526.506 1116.77C526.286 1116.92 526.14 1116.99 526.066 1116.99C523.72 1116.99 522.253 1116.4 521.666 1115.23C520.786 1115.01 520.126 1114.75 519.686 1114.46V1112.59C519.393 1112 519.246 1111.56 519.246 1111.27C519.246 1110.02 519.796 1109.25 520.896 1108.96L524.086 1108.19C524.38 1108.12 524.71 1108.08 525.076 1108.08C525.883 1108.08 526.543 1108.34 527.056 1108.85C527.276 1108.78 527.643 1108.59 528.156 1108.3L530.136 1108.08L532.336 1107.42L535.636 1107.64C537.103 1108.08 538.423 1108.41 539.596 1108.63L539.816 1108.3L538.716 1106.43L538.936 1104.78C538.716 1104.19 538.606 1103.72 538.606 1103.35C538.606 1102.91 538.753 1102.54 539.046 1102.25C538.753 1101 538.606 1099.94 538.606 1099.06C538.606 1098.18 539.01 1097.41 539.816 1096.75L539.596 1094.66C539.816 1094.44 539.926 1094.26 539.926 1094.11C539.926 1093.96 539.633 1093.67 539.046 1093.23L538.606 1089.6L538.936 1089.49L539.816 1087.84L539.046 1085.75L540.366 1084.32L540.806 1082.01V1081.46C540.806 1080.65 540.99 1079.92 541.356 1079.26C541.136 1078.89 541.026 1078.53 541.026 1078.16C541.026 1078.09 541.063 1077.94 541.136 1077.72C541.136 1077.57 541.136 1077.43 541.136 1077.28L540.696 1077.5C540.476 1077.65 539.926 1077.79 539.046 1077.94L536.736 1078.82H536.296C535.49 1079.41 534.573 1079.7 533.546 1079.7H532.996C532.483 1080.29 531.786 1081.02 530.906 1081.9L529.036 1080.91L527.936 1081.13C526.69 1081.35 525.37 1082.08 523.976 1083.33C523.17 1082.38 522.216 1081.79 521.116 1081.57L517.816 1080.47L516.606 1077.72C517.633 1075.74 518.77 1074.75 520.016 1074.75C520.603 1074.75 521.336 1074.9 522.216 1075.19L523.536 1076.29C524.27 1075.63 525.04 1075.3 525.846 1075.3C526.433 1074.64 528.193 1074.13 531.126 1073.76H531.676C532.336 1073.76 532.996 1073.5 533.656 1072.99C534.39 1072.4 534.94 1072.07 535.306 1072L534.756 1071.67L538.276 1070.9L538.826 1070.13C538.606 1069.91 538.24 1069.54 537.726 1069.03L541.246 1067.38H542.566L543.006 1067.93C543.3 1068 543.483 1068.15 543.556 1068.37C543.41 1067.93 543.336 1067.31 543.336 1066.5C543.336 1065.33 543.776 1064.3 544.656 1063.42L548.726 1062.43H553.016C555.07 1064.34 556.096 1065.84 556.096 1066.94C556.096 1067.67 555.693 1068.37 554.886 1069.03L552.136 1071.23C552.136 1071.3 552.136 1071.41 552.136 1071.56C552.063 1071.71 552.026 1071.82 552.026 1071.89C552.026 1071.96 552.063 1072.07 552.136 1072.22C552.136 1072.37 552.136 1072.48 552.136 1072.55L551.696 1072.77L550.926 1072.55L551.146 1075.74L550.486 1076.18C550.413 1076.47 550.266 1076.8 550.046 1077.17L549.716 1077.5C549.643 1077.57 549.606 1077.68 549.606 1077.83C549.606 1078.2 549.753 1078.53 550.046 1078.82C549.46 1079.92 549.02 1081.2 548.726 1082.67C548.506 1084.14 548.286 1085.05 548.066 1085.42L548.506 1086.19L547.296 1088.5L547.516 1089.93L546.966 1092.24L547.406 1093.12L546.746 1094.99C546.966 1095.72 547.076 1096.38 547.076 1096.97C547.076 1097.26 547.04 1097.52 546.966 1097.74C547.186 1098.33 547.443 1099.17 547.736 1100.27L546.526 1100.82V1101.04C546.673 1101.41 546.746 1101.99 546.746 1102.8C546.746 1103.61 546.673 1104.23 546.526 1104.67L547.736 1105.44C547.443 1105.88 547.186 1106.54 546.966 1107.42L546.746 1107.09L546.856 1109.18L547.516 1108.19L549.386 1108.74L552.576 1108.19L552.686 1108.74L557.416 1107.42L556.536 1109.73C556.903 1109.66 557.306 1109.62 557.746 1109.62C558.553 1109.62 559.396 1109.8 560.276 1110.17H560.606C562.44 1109.8 563.76 1109.62 564.566 1109.62C565.373 1109.62 566.656 1109.84 568.416 1110.28L569.076 1109.62C571.056 1110.5 572.046 1111.64 572.046 1113.03Z" fill="white"/>
<circle cx="1102" cy="1092" r="225" fill="#FFAA00"/>
<path d="M1011.54 1117.76C1011.47 1119.59 1010.26 1120.88 1007.91 1121.61L1003.73 1119.63H1002.52L1001.09 1118.53H999.33L998.01 1116.33L996.91 1115.78L995.48 1113.25L993.5 1111.16V1110.28L992.62 1109.51L992.4 1107.75L990.97 1106.43L988.66 1101.26L987.67 1100.05L987.23 1096.97L985.8 1095.1L983.49 1094.77L980.96 1096.2L980.41 1095.65L978.65 1096.75L978.1 1095.54C977.733 1095.61 977.183 1095.65 976.45 1095.65C975.643 1095.65 975.057 1095.61 974.69 1095.54H973.81L971.5 1096.75L968.97 1096.42H968.53L966.77 1097.41L965.34 1096.86C963.947 1096.86 962.92 1096.71 962.26 1096.42H961.71L958.85 1097.74L957.75 1096.53L955.77 1095.98L955.33 1096.31C953.717 1098.44 952.543 1099.94 951.81 1100.82L950.05 1101.26C947.263 1105.29 945.503 1107.46 944.77 1107.75L944.33 1107.86L940.81 1112.15H940.37L938.17 1115.56L933.99 1117.87C933.257 1118.02 932.67 1118.09 932.23 1118.09C930.837 1118.09 929.517 1117.58 928.27 1116.55L929.59 1113.8V1112.15L930.03 1111.6L930.25 1109.4L933.66 1108.96L934.54 1108.41C935.42 1107.9 935.933 1107.13 936.08 1106.1C937.4 1105.73 938.207 1105 938.5 1103.9C940.48 1102.87 941.763 1101.26 942.35 1099.06L944.22 1098.4L946.97 1094.33C946.383 1093.52 945.943 1092.5 945.65 1091.25L947.96 1089.38V1087.29L952.25 1087.62L953.35 1087.07C953.717 1085.82 954.45 1084.94 955.55 1084.43L955.77 1082.34L958.08 1081.13C958.3 1080.98 958.703 1080.8 959.29 1080.58V1079.92C959.29 1079.26 959.437 1078.67 959.73 1078.16C961.27 1077.06 962.077 1075.56 962.15 1073.65L963.69 1073.32L964.24 1072.33L965.01 1072.22L967.1 1068.26L967.65 1068.48L968.53 1068.04V1065.07H969.3C971.133 1063.09 972.05 1061.81 972.05 1061.22L972.6 1060.78L972.05 1059.13C973.81 1057 975.24 1055.9 976.34 1055.83L978.43 1054.07L980.85 1056.49L983.93 1058.14L984.26 1061C984.627 1061.44 984.92 1061.88 985.14 1062.32C986.167 1063.57 986.753 1064.85 986.9 1066.17L987.56 1068.92L989.21 1071.34L990.2 1074.97L990.42 1076.73L992.4 1079.15L991.96 1079.92L992.84 1080.69V1082.89L993.06 1084.54C992.84 1085.64 992.73 1086.04 992.73 1085.75L993.28 1086.3C993.28 1086.3 993.5 1086.59 993.94 1087.18C994.893 1087.11 995.59 1087 996.03 1086.85H999.33C999.917 1087 1000.36 1087.07 1000.65 1087.07C1001.09 1087.07 1001.53 1086.92 1001.97 1086.63C1002.48 1086.26 1003.25 1086.08 1004.28 1086.08C1005.01 1086.08 1006.11 1086.45 1007.58 1087.18L1010.88 1087.4C1011.03 1087.99 1011.1 1088.43 1011.1 1088.72C1011.1 1089.82 1010.55 1090.66 1009.45 1091.25L1007.8 1090.7L1004.72 1092.9L1002.19 1092.57L1001.09 1093.12L998.67 1093.34V1092.9L995.81 1093.56L995.7 1094.22L995.92 1096.75L997.35 1098.73L997.57 1100.71L1000.1 1104.23L999.88 1105.44L1000.87 1106.43L1003.51 1110.5L1005.38 1112.37L1005.82 1113.25L1007.8 1114.24L1008.57 1116L1011.54 1117.76ZM984.37 1088.06H984.26L983.05 1086.85L984.37 1085.75C983.783 1085.24 983.49 1084.47 983.49 1083.44L982.72 1083L982.17 1078.49L980.85 1076.62L980.52 1074.75L980.3 1074.31H979.53L979.2 1070.35L978.21 1068.92L977.66 1068.7L977.33 1068.26L976.89 1069.03L974.25 1072.33L973.37 1074.2L971.17 1076.18L970.73 1078.16L968.2 1079.26C967.833 1081.46 966.733 1083.04 964.9 1083.99L964.13 1086.19L962.7 1087.62H963.69C965.01 1088.06 966.11 1088.28 966.99 1088.28H967.43C967.87 1088.06 968.31 1087.95 968.75 1087.95C969.263 1087.95 969.85 1088.1 970.51 1088.39L970.95 1088.5C971.39 1088.43 972.087 1088.39 973.04 1088.39C974.213 1088.39 975.093 1088.43 975.68 1088.5L979.53 1088.06L982.06 1089.38C983.307 1088.87 984.04 1088.35 984.26 1087.84C984.26 1087.91 984.297 1087.95 984.37 1087.95C984.37 1087.95 984.37 1087.99 984.37 1088.06ZM1060.33 1099.72L1059.01 1103.02L1059.89 1105.22L1059.45 1105.88L1059.01 1107.64L1058.13 1109.18L1057.69 1109.4L1057.47 1111.49L1055.49 1111.71C1054.47 1112.66 1053.4 1113.43 1052.3 1114.02L1051.64 1113.91L1049.99 1114.46L1049 1114.57L1046.91 1115.34L1044.49 1114.24L1044.16 1114.02L1042.29 1114.13L1042.73 1114.35L1039.65 1113.91L1036.9 1114.57L1035.8 1113.58L1033.49 1113.8L1032.61 1113.14C1032.54 1113.14 1032.25 1113.18 1031.73 1113.25V1113.91C1031.73 1114.57 1031.62 1115.23 1031.4 1115.89L1031.73 1117.98L1030.85 1119.08C1031 1120.69 1031.07 1121.9 1031.07 1122.71L1030.74 1125.46L1031.18 1129.64L1030.3 1130.74L1030.74 1132.39L1030.41 1133.49L1031.07 1133.82V1135.47C1031.22 1135.91 1031.29 1136.24 1031.29 1136.46C1031.29 1137.12 1030.89 1137.67 1030.08 1138.11L1030.52 1139.65L1029.97 1140.53L1029.75 1144.93C1029.53 1150.06 1028.4 1152.63 1026.34 1152.63C1025.9 1152.63 1024.62 1152.34 1022.49 1151.75L1022.82 1148.45L1022.16 1143.61L1023.26 1141.63L1023.37 1139.21L1022.93 1135.91L1023.81 1134.48L1022.82 1131.95L1023.59 1130.63L1022.93 1128.43L1023.81 1126.45C1023.67 1126.01 1023.37 1125.61 1022.93 1125.24C1022.57 1124.87 1022.38 1124.62 1022.38 1124.47C1022.38 1124.25 1022.64 1124.03 1023.15 1123.81C1023.08 1123.59 1023.04 1123.22 1023.04 1122.71C1023.04 1121.76 1023.26 1120.51 1023.7 1118.97L1023.04 1117.87L1023.37 1116.44L1022.6 1115.45L1023.59 1114.24L1023.15 1111.05L1023.81 1106.54L1023.04 1105.11L1024.25 1103.02L1022.93 1101.81L1023.7 1099.72L1022.93 1099.17L1023.04 1097.3L1023.7 1094.99V1094.55L1023.81 1094.11V1092.9L1023.92 1092.46L1023.37 1090.7L1023.92 1088.83L1023.37 1087.4L1023.81 1085.75L1023.37 1085.31L1023.7 1083.11L1023.37 1081.9L1023.59 1080.8L1023.26 1080.03L1019.3 1081.79V1081.13L1018.53 1081.24L1017.32 1082.34H1016.33L1015.01 1084.1L1013.91 1083.66L1013.36 1084.76C1009.77 1082.63 1007.97 1080.95 1007.97 1079.7C1007.97 1078.82 1008.3 1078.09 1008.96 1077.5L1008.85 1075.85C1010.91 1074.68 1012.85 1074.05 1014.68 1073.98L1015.45 1073.21L1018.97 1071.78L1019.74 1071.01L1022.82 1071.23L1023.37 1071.01L1024.36 1067.16L1027 1067.71L1028.76 1070.57L1029.75 1069.58L1031.73 1071.01C1032.69 1071.01 1033.6 1071.19 1034.48 1071.56L1035.03 1072.55L1035.8 1072.22L1036.68 1072.88C1037.2 1072.88 1037.6 1072.92 1037.89 1072.99L1037.78 1073.65L1040.2 1072.88L1041.41 1074.2L1043.5 1074.86L1044.93 1076.62L1047.57 1078.27L1047.68 1078.49L1049.77 1079.15V1079.81C1050.36 1080.25 1050.8 1080.84 1051.09 1081.57L1051.97 1082.12L1052.63 1083.33H1053.95V1085.53L1054.72 1086.3L1054.94 1087.07L1056.04 1087.29C1056.19 1088.98 1056.67 1090.41 1057.47 1091.58V1092.35L1058.57 1093.45L1058.35 1095.21L1059.23 1097.19L1059.56 1099.5L1060.33 1099.72ZM1052.08 1101.37L1051.97 1100.82L1052.08 1100.38L1051.42 1098.4L1051.86 1097.41L1051.42 1096.53L1051.31 1095.43L1050.43 1093.67L1049.99 1092.46L1048.34 1089.6L1047.02 1088.5L1046.25 1086.63L1045.26 1086.19L1043.5 1083.88L1041.74 1084.1L1040.42 1082.34L1039.32 1082.56L1038.55 1081.13L1038.11 1081.02H1036.57L1035.47 1081.57L1034.59 1080.69L1033.49 1080.91L1033.05 1080.14L1031.07 1079.81L1031.18 1081.13L1030.96 1083.22L1031.4 1084.43L1032.94 1085.86L1031.73 1088.5L1031.84 1090.15L1031.29 1093.45C1031.51 1094.84 1031.95 1096.02 1032.61 1096.97L1032.17 1098.18C1032.25 1098.25 1032.28 1098.33 1032.28 1098.4C1032.28 1098.62 1031.99 1098.95 1031.4 1099.39L1032.17 1100.38L1031.62 1101.7L1031.4 1103.13L1031.73 1104.67L1031.62 1106.1H1033.93C1034.23 1105.95 1034.63 1105.88 1035.14 1105.88C1035.8 1105.88 1036.39 1106.1 1036.9 1106.54C1036.98 1106.54 1037.12 1106.5 1037.34 1106.43C1037.49 1106.43 1037.6 1106.43 1037.67 1106.43C1037.89 1106.43 1038.3 1106.5 1038.88 1106.65C1039.32 1106.43 1039.73 1106.32 1040.09 1106.32C1040.68 1106.32 1041.23 1106.47 1041.74 1106.76H1042.73L1043.61 1106.98L1045.81 1106.32L1047.57 1107.42C1048.23 1107.64 1048.49 1107.75 1048.34 1107.75L1050.43 1105.66L1050.65 1104.12L1051.2 1103.9L1050.87 1103.02L1051.64 1102.14L1052.08 1101.37ZM1111.79 1099.72L1110.47 1103.02L1111.35 1105.22L1110.91 1105.88L1110.47 1107.64L1109.59 1109.18L1109.15 1109.4L1108.93 1111.49L1106.95 1111.71C1105.92 1112.66 1104.86 1113.43 1103.76 1114.02L1103.1 1113.91L1101.45 1114.46L1100.46 1114.57L1098.37 1115.34L1095.95 1114.24L1095.62 1114.02L1093.75 1114.13L1094.19 1114.35L1091.11 1113.91L1088.36 1114.57L1087.26 1113.58L1084.95 1113.8L1084.07 1113.14C1083.99 1113.14 1083.7 1113.18 1083.19 1113.25V1113.91C1083.19 1114.57 1083.08 1115.23 1082.86 1115.89L1083.19 1117.98L1082.31 1119.08C1082.45 1120.69 1082.53 1121.9 1082.53 1122.71L1082.2 1125.46L1082.64 1129.64L1081.76 1130.74L1082.2 1132.39L1081.87 1133.49L1082.53 1133.82V1135.47C1082.67 1135.91 1082.75 1136.24 1082.75 1136.46C1082.75 1137.12 1082.34 1137.67 1081.54 1138.11L1081.98 1139.65L1081.43 1140.53L1081.21 1144.93C1080.99 1150.06 1079.85 1152.63 1077.8 1152.63C1077.36 1152.63 1076.07 1152.34 1073.95 1151.75L1074.28 1148.45L1073.62 1143.61L1074.72 1141.63L1074.83 1139.21L1074.39 1135.91L1075.27 1134.48L1074.28 1131.95L1075.05 1130.63L1074.39 1128.43L1075.27 1126.45C1075.12 1126.01 1074.83 1125.61 1074.39 1125.24C1074.02 1124.87 1073.84 1124.62 1073.84 1124.47C1073.84 1124.25 1074.09 1124.03 1074.61 1123.81C1074.53 1123.59 1074.5 1123.22 1074.5 1122.71C1074.5 1121.76 1074.72 1120.51 1075.16 1118.97L1074.5 1117.87L1074.83 1116.44L1074.06 1115.45L1075.05 1114.24L1074.61 1111.05L1075.27 1106.54L1074.5 1105.11L1075.71 1103.02L1074.39 1101.81L1075.16 1099.72L1074.39 1099.17L1074.5 1097.3L1075.16 1094.99V1094.55L1075.27 1094.11V1092.9L1075.38 1092.46L1074.83 1090.7L1075.38 1088.83L1074.83 1087.4L1075.27 1085.75L1074.83 1085.31L1075.16 1083.11L1074.83 1081.9L1075.05 1080.8L1074.72 1080.03L1070.76 1081.79V1081.13L1069.99 1081.24L1068.78 1082.34H1067.79L1066.47 1084.1L1065.37 1083.66L1064.82 1084.76C1061.22 1082.63 1059.43 1080.95 1059.43 1079.7C1059.43 1078.82 1059.76 1078.09 1060.42 1077.5L1060.31 1075.85C1062.36 1074.68 1064.3 1074.05 1066.14 1073.98L1066.91 1073.21L1070.43 1071.78L1071.2 1071.01L1074.28 1071.23L1074.83 1071.01L1075.82 1067.16L1078.46 1067.71L1080.22 1070.57L1081.21 1069.58L1083.19 1071.01C1084.14 1071.01 1085.06 1071.19 1085.94 1071.56L1086.49 1072.55L1087.26 1072.22L1088.14 1072.88C1088.65 1072.88 1089.05 1072.92 1089.35 1072.99L1089.24 1073.65L1091.66 1072.88L1092.87 1074.2L1094.96 1074.86L1096.39 1076.62L1099.03 1078.27L1099.14 1078.49L1101.23 1079.15V1079.81C1101.81 1080.25 1102.25 1080.84 1102.55 1081.57L1103.43 1082.12L1104.09 1083.33H1105.41V1085.53L1106.18 1086.3L1106.4 1087.07L1107.5 1087.29C1107.64 1088.98 1108.12 1090.41 1108.93 1091.58V1092.35L1110.03 1093.45L1109.81 1095.21L1110.69 1097.19L1111.02 1099.5L1111.79 1099.72ZM1103.54 1101.37L1103.43 1100.82L1103.54 1100.38L1102.88 1098.4L1103.32 1097.41L1102.88 1096.53L1102.77 1095.43L1101.89 1093.67L1101.45 1092.46L1099.8 1089.6L1098.48 1088.5L1097.71 1086.63L1096.72 1086.19L1094.96 1083.88L1093.2 1084.1L1091.88 1082.34L1090.78 1082.56L1090.01 1081.13L1089.57 1081.02H1088.03L1086.93 1081.57L1086.05 1080.69L1084.95 1080.91L1084.51 1080.14L1082.53 1079.81L1082.64 1081.13L1082.42 1083.22L1082.86 1084.43L1084.4 1085.86L1083.19 1088.5L1083.3 1090.15L1082.75 1093.45C1082.97 1094.84 1083.41 1096.02 1084.07 1096.97L1083.63 1098.18C1083.7 1098.25 1083.74 1098.33 1083.74 1098.4C1083.74 1098.62 1083.44 1098.95 1082.86 1099.39L1083.63 1100.38L1083.08 1101.7L1082.86 1103.13L1083.19 1104.67L1083.08 1106.1H1085.39C1085.68 1105.95 1086.08 1105.88 1086.6 1105.88C1087.26 1105.88 1087.84 1106.1 1088.36 1106.54C1088.43 1106.54 1088.58 1106.5 1088.8 1106.43C1088.94 1106.43 1089.05 1106.43 1089.13 1106.43C1089.35 1106.43 1089.75 1106.5 1090.34 1106.65C1090.78 1106.43 1091.18 1106.32 1091.55 1106.32C1092.13 1106.32 1092.68 1106.47 1093.2 1106.76H1094.19L1095.07 1106.98L1097.27 1106.32L1099.03 1107.42C1099.69 1107.64 1099.94 1107.75 1099.8 1107.75L1101.89 1105.66L1102.11 1104.12L1102.66 1103.9L1102.33 1103.02L1103.1 1102.14L1103.54 1101.37ZM1213.17 1081.46L1212.29 1083.77L1210.53 1084.98L1208.66 1083.66H1207.78C1207.19 1083.81 1206.72 1083.88 1206.35 1083.88H1205.8L1204.7 1084.21L1203.93 1083.77C1203.56 1083.84 1203.01 1083.88 1202.28 1083.88C1201.62 1083.88 1201.14 1083.84 1200.85 1083.77L1196.45 1084.43L1195.13 1083.99C1194.18 1083.99 1193.41 1084.03 1192.82 1084.1L1192.16 1085.75L1191.06 1087.18L1190.84 1091.03L1189.63 1092.24L1188.86 1094.88L1187.98 1095.43C1187.91 1095.8 1187.72 1096.13 1187.43 1096.42C1187.58 1096.42 1187.76 1096.46 1187.98 1096.53C1188.27 1096.6 1188.49 1096.64 1188.64 1096.64C1188.86 1096.57 1189.15 1096.53 1189.52 1096.53C1190.03 1096.53 1190.55 1096.68 1191.06 1096.97H1192.05L1194.14 1096.75L1195.35 1097.3L1196.23 1096.97L1197.66 1097.74L1197.55 1097.3C1198.43 1097.15 1199.13 1097.08 1199.64 1097.08C1200.74 1097.08 1201.84 1097.19 1202.94 1097.41C1203.82 1097.19 1204.7 1097.08 1205.58 1097.08C1206.09 1097.08 1206.86 1097.15 1207.89 1097.3L1209.76 1101.92L1207.45 1102.58L1205.91 1103.79L1204.04 1102.47H1203.05C1202.46 1102.62 1202.06 1102.69 1201.84 1102.69C1201.77 1102.69 1201.66 1102.65 1201.51 1102.58C1201.29 1102.58 1201.14 1102.58 1201.07 1102.58L1200.08 1103.02L1199.2 1102.58C1198.98 1102.58 1198.69 1102.58 1198.32 1102.58C1197.95 1102.65 1197.7 1102.69 1197.55 1102.69C1197.33 1102.69 1197.07 1102.65 1196.78 1102.58C1196.49 1102.58 1196.27 1102.58 1196.12 1102.58L1191.72 1103.24L1190.4 1102.8C1188.79 1102.8 1187.1 1103.02 1185.34 1103.46L1184.68 1103.9L1184.46 1104.34L1184.79 1104.89L1184.13 1105.88L1183.03 1106.76L1182.48 1108.74L1181.05 1112.15L1180.72 1114.46L1179.73 1116.22L1179.51 1119.3L1177.64 1122.16L1176.32 1126.23L1176.1 1128.76L1173.24 1133.27L1168.18 1131.29L1169.83 1126.67L1169.72 1124.58L1170.6 1122.93L1170.82 1121.17L1171.48 1120.84L1171.59 1119.3L1172.14 1117.54L1174.01 1112.7C1174.3 1111.09 1174.56 1109.95 1174.78 1109.29L1175.88 1108.19L1175.99 1106.21L1176.98 1103.9L1176.87 1102.91C1176.14 1103.13 1175.55 1103.46 1175.11 1103.9L1175 1103.02C1173.09 1103.31 1172.21 1103.46 1172.36 1103.46L1170.71 1103.02L1167.52 1104.01L1164.88 1103.24L1164.66 1103.57L1164 1105.88L1162.79 1106.76L1162.24 1108.74L1160.81 1112.15L1160.37 1114.46L1159.6 1116.22L1159.27 1119.3L1157.4 1122.16L1156.08 1126.23L1155.86 1128.76L1153 1133.27L1147.94 1131.29L1149.59 1126.67L1149.48 1124.58L1150.36 1122.93L1150.58 1121.17L1151.24 1120.84L1151.35 1119.3L1151.9 1117.54L1153.55 1113.36L1154.54 1109.29L1155.53 1108.19L1155.75 1106.21L1156.74 1103.9L1155.2 1103.24L1154.76 1103.35L1152.89 1103.79L1151.13 1103.13L1148.6 1103.57L1146.95 1104.34L1144.97 1103.02L1143.21 1101.81L1143.1 1099.94C1142.95 1099.65 1142.88 1098.91 1142.88 1097.74C1143.91 1097.08 1144.79 1096.75 1145.52 1096.75L1147.72 1096.09L1149.92 1095.76L1152.23 1096.2L1154.21 1095.98L1157.62 1096.42L1159.93 1096.09L1160.37 1095.32L1160.48 1094.55L1160.26 1094.22L1160.37 1093.67H1160.7V1092.02C1160.85 1091.58 1161.14 1090.77 1161.58 1089.6L1162.02 1089.38L1161.91 1087.18L1163.12 1086.74V1086.3C1163.12 1085.71 1163.3 1085.13 1163.67 1084.54C1163.3 1084.61 1162.64 1084.8 1161.69 1085.09L1159.82 1084.43L1157.62 1084.98L1155.86 1084.43L1153.33 1084.65L1151.68 1085.42L1149.59 1084.1L1147.83 1083.11L1147.72 1081.24C1147.57 1080.8 1147.5 1080.4 1147.5 1080.03C1147.5 1079.96 1147.54 1079.77 1147.61 1079.48C1147.61 1079.26 1147.61 1079.08 1147.61 1078.93C1148.71 1078.27 1149.59 1077.94 1150.25 1077.94L1152.34 1077.28L1154.54 1076.95L1156.96 1077.5L1158.83 1077.28L1162.24 1077.72L1164.88 1077.28L1166.75 1077.5L1167.3 1075.08L1169.72 1070.13L1169.83 1066.06L1171.92 1065.07L1172.36 1061.66L1174.12 1058.69C1174.49 1058.32 1176.06 1057.26 1178.85 1055.5L1182.81 1059.02L1181.05 1063.75L1178.74 1068.7L1177.75 1070.46L1176.87 1073.43L1174.89 1077.72L1175.44 1077.83H1176.1C1176.32 1077.83 1177.16 1077.9 1178.63 1078.05C1179.22 1077.83 1179.91 1077.72 1180.72 1077.72C1181.38 1077.72 1181.89 1077.76 1182.26 1077.83L1182.59 1078.16L1187.32 1077.72C1187.32 1077.13 1187.39 1076.25 1187.54 1075.08L1189.96 1070.13L1190.07 1066.06L1192.05 1065.07L1192.6 1061.66L1194.36 1058.69C1195.31 1057.81 1196.89 1056.75 1199.09 1055.5L1203.05 1059.02L1201.29 1063.75L1198.98 1068.7L1197.99 1070.46L1197.11 1073.43L1195.13 1077.83L1195.79 1078.16H1196.67L1198.76 1078.05L1200.08 1078.49L1200.96 1078.27L1202.28 1078.93V1078.6C1202.79 1078.45 1203.64 1078.38 1204.81 1078.38C1205.98 1078.38 1206.9 1078.45 1207.56 1078.6C1208.22 1078.38 1208.77 1078.27 1209.21 1078.27C1210.53 1078.27 1211.67 1078.34 1212.62 1078.49L1213.17 1081.46ZM1183.69 1084.54C1182.22 1084.25 1181.16 1084.1 1180.5 1084.1C1179.47 1084.1 1178.3 1084.28 1176.98 1084.65L1175.44 1084.32L1172.14 1085.2L1171.92 1085.75L1170.82 1087.18L1170.6 1091.03L1169.39 1092.24L1168.62 1094.88L1167.74 1095.43L1167.41 1096.31L1168.18 1096.75L1169.39 1096.42H1170.6C1171.99 1096.42 1173.13 1096.57 1174.01 1096.86C1174.45 1096.64 1175.07 1096.53 1175.88 1096.53C1176.03 1096.53 1176.28 1096.53 1176.65 1096.53C1177.02 1096.6 1177.31 1096.64 1177.53 1096.64L1177.97 1096.86L1179.73 1096.75L1180.72 1095.32V1093.45L1180.94 1094V1093.45C1180.94 1092.2 1181.23 1090.92 1181.82 1089.6L1182.26 1089.38L1182.15 1087.18L1183.36 1086.74C1183.36 1085.71 1183.47 1084.98 1183.69 1084.54ZM1280.26 1112.26L1279.71 1114.68L1278.06 1115.34L1278.5 1115.45C1277.18 1116.4 1275.75 1116.99 1274.21 1117.21L1273.11 1117.1C1272.3 1117.69 1271.49 1117.98 1270.69 1117.98C1270.32 1117.98 1270.06 1117.94 1269.92 1117.87C1269.77 1117.87 1269.59 1117.91 1269.37 1117.98C1269.07 1117.98 1268.85 1117.98 1268.71 1117.98C1268.63 1117.98 1268.52 1117.98 1268.38 1117.98C1268.23 1117.91 1268.12 1117.87 1268.05 1117.87L1266.95 1117.54H1265.41L1263.54 1116.77L1262.44 1117.43L1261.56 1116.99L1259.8 1117.32C1259.36 1116.88 1259.14 1116.48 1259.14 1116.11C1258.84 1116.18 1258.44 1116.22 1257.93 1116.22C1257.05 1116.22 1256.31 1115.96 1255.73 1115.45H1255.29C1254.85 1115.45 1254.41 1115.34 1253.97 1115.12L1253.42 1115.34L1253.09 1115.45C1252.35 1114.94 1251.07 1114.28 1249.24 1113.47C1248.21 1113.47 1247 1113.18 1245.61 1112.59H1243.3L1242.97 1111.82L1240.11 1112.04C1239.15 1111.53 1238.68 1111.23 1238.68 1111.16V1110.94L1238.35 1111.6L1237.03 1112.04L1236.81 1111.93C1236.07 1112.66 1235.08 1113.1 1233.84 1113.25H1233.62L1232.85 1114.24H1232.08C1231.27 1114.24 1230.54 1114.35 1229.88 1114.57L1229.77 1115.45L1227.13 1115.56C1226.47 1116.22 1225.77 1116.55 1225.04 1116.55C1224.6 1116.55 1224.16 1116.44 1223.72 1116.22L1222.51 1116.66L1219.54 1116.55L1214.92 1114.79L1213.38 1113.36L1212.72 1111.38C1212.64 1110.94 1212.61 1110.43 1212.61 1109.84C1212.61 1109.69 1212.61 1109.55 1212.61 1109.4C1212.68 1109.18 1212.72 1109.03 1212.72 1108.96L1213.05 1106.65L1212.39 1105.66C1214.88 1103.39 1216.49 1102.21 1217.23 1102.14L1218.77 1101.04L1220.09 1101.26L1220.75 1100.82C1222.65 1100.53 1223.72 1100.38 1223.94 1100.38C1223.79 1100.38 1223.97 1100.42 1224.49 1100.49C1225.59 1100.27 1226.54 1100.16 1227.35 1100.16C1228.3 1100.16 1228.92 1100.23 1229.22 1100.38L1231.86 1101.37L1234.72 1101.81L1238.24 1103.24C1238.9 1102.87 1239.67 1102.65 1240.55 1102.58L1240.44 1102.25C1241.83 1101.52 1242.93 1101.08 1243.74 1100.93H1244.07L1244.73 1099.5L1247.48 1098.07L1249.24 1097.3C1249.38 1096.49 1249.75 1095.91 1250.34 1095.54L1250.45 1094.66C1251.47 1094.37 1252.1 1094.22 1252.32 1094.22C1252.61 1094.22 1252.79 1094.26 1252.87 1094.33L1254.08 1093.01V1092.13L1254.96 1092.57L1255.4 1089.93L1257.82 1089.6C1258.18 1088.72 1258.92 1088.1 1260.02 1087.73L1261.34 1086.85L1261.78 1085.53C1261.85 1085.16 1261.96 1084.8 1262.11 1084.43C1262.33 1084.06 1262.44 1083.84 1262.44 1083.77V1083.66C1262.44 1082.78 1262.66 1082.16 1263.1 1081.79L1262.77 1079.92L1263.65 1078.82V1077.17L1262 1074.64C1261.48 1073.47 1259.72 1072.33 1256.72 1071.23L1255.84 1071.34L1253.86 1070.02H1251.88L1251.33 1069.25L1250.67 1069.36L1248.58 1068.81L1247.7 1069.03L1246.38 1068.7L1243.85 1069.03L1243.41 1068.7L1242.53 1069.25L1241.54 1068.7C1240.66 1068.77 1239.89 1068.81 1239.23 1068.81C1238.49 1069.25 1237.72 1069.47 1236.92 1069.47L1235.16 1070.46L1232.74 1070.9L1232.41 1071.34L1231.2 1071.89L1230.76 1071.67C1230.61 1071.82 1230.28 1072.22 1229.77 1072.88H1229.33V1073.65L1227.79 1073.87V1075.19L1225.15 1075.96C1224.85 1076.18 1224.52 1076.47 1224.16 1076.84C1224.16 1077.35 1223.72 1077.94 1222.84 1078.6L1218.55 1079.04L1216.57 1077.17L1215.47 1074.42V1073.43C1215.47 1072.04 1216.02 1070.94 1217.12 1070.13C1217.56 1068.88 1218.44 1068.08 1219.76 1067.71L1219.98 1067.05H1221.41L1221.52 1066.72L1227.24 1064.08L1228.01 1064.19L1228.56 1063.86V1063.64C1230.32 1062.69 1232.19 1062.21 1234.17 1062.21C1234.31 1062.21 1234.53 1062.21 1234.83 1062.21C1235.12 1062.28 1235.34 1062.32 1235.49 1062.32C1237.17 1061.29 1238.9 1060.78 1240.66 1060.78H1241.65L1244.95 1061.11L1247.92 1060.89L1251 1061.55C1251.51 1061.62 1252.35 1061.81 1253.53 1062.1L1254.19 1062.32H1253.97L1255.4 1063.09C1256.57 1063.24 1257.6 1063.49 1258.48 1063.86C1258.62 1064.08 1258.92 1064.41 1259.36 1064.85L1260.24 1064.74L1261.67 1066.28L1264.64 1067.38L1268.93 1071.78L1269.59 1073.98L1271.35 1074.64L1270.8 1076.29C1270.94 1077.17 1271.02 1077.79 1271.02 1078.16C1271.02 1078.31 1271.02 1078.49 1271.02 1078.71C1270.94 1079 1270.91 1079.19 1270.91 1079.26L1271.57 1081.02L1270.8 1082.45L1271.02 1083.66C1270.94 1084.54 1270.65 1085.35 1270.14 1086.08C1269.7 1086.81 1269.22 1087.51 1268.71 1088.17L1267.5 1090.15C1266.76 1091.32 1265.85 1092.17 1264.75 1092.68L1263.65 1095.1L1262.55 1095.43L1262.22 1095.98C1261.63 1096.93 1260.46 1097.67 1258.7 1098.18C1257.67 1098.99 1257.12 1099.68 1257.05 1100.27L1255.07 1101.59C1254.92 1101.44 1254.7 1101.37 1254.41 1101.37C1254.26 1101.37 1254.04 1101.41 1253.75 1101.48C1253.45 1101.55 1253.2 1101.59 1252.98 1101.59C1252.9 1101.59 1252.83 1101.55 1252.76 1101.48C1252.61 1101.48 1252.5 1101.48 1252.43 1101.48L1249.9 1103.46L1250.45 1103.79C1250.37 1103.94 1249.6 1104.41 1248.14 1105.22C1247.11 1105.66 1246.27 1105.99 1245.61 1106.21L1249.57 1106.54L1251.66 1107.53H1253.75L1254.19 1108.19L1256.28 1108.3C1256.42 1108.89 1256.79 1109.18 1257.38 1109.18C1257.6 1109.18 1257.93 1109.11 1258.37 1108.96C1258.51 1109.18 1258.59 1109.51 1258.59 1109.95L1258.48 1110.06C1258.48 1109.99 1258.88 1110.17 1259.69 1110.61L1261.34 1109.62L1262.33 1110.17L1264.64 1110.28L1266.84 1109.95L1268.27 1110.72L1271.02 1111.27L1272.67 1110.61H1274.21C1274.94 1110.24 1275.78 1110.06 1276.74 1110.06C1277.69 1110.06 1278.5 1110.21 1279.16 1110.5L1280.26 1112.26ZM1232.41 1107.53L1230.87 1106.87L1227.46 1106.1L1225.7 1106.43H1222.51L1220.42 1106.98L1218.77 1108.63L1219.65 1109.62L1219.43 1110.5L1221.41 1111.05L1224.49 1110.72L1227.79 1110.17L1230.21 1109.07L1232.41 1107.53Z" fill="white"/>
<rect x="406" y="157" width="630" height="281" fill="#DC6BFF"/>
<path d="M586.399 271.66C586.399 273.567 585.115 274.593 582.549 274.74C581.742 275.327 580.899 275.62 580.019 275.62L575.949 276.17H573.969L572.429 277.27L569.899 277.38L568.909 278.15L563.519 278.37L560.439 279.8H559.889C559.375 279.8 559.009 279.837 558.789 279.91L558.239 280.46C557.505 280.827 556.809 281.01 556.149 281.01C555.709 281.01 555.122 280.863 554.389 280.57L551.969 281.12L549.439 281.23L546.799 282H540.309L536.679 281.12L533.709 281.34L532.719 280.46L530.629 280.35C527.402 277.93 525.165 275.4 523.919 272.76C523.405 271 522.855 269.24 522.269 267.48L521.389 265.39L522.489 261.65L521.829 257.14L522.819 256.48L523.039 252.3L523.809 250.1L524.359 246.8V239.98L525.349 238.22L525.569 237.34L525.349 233.38L526.229 232.5L525.239 231.73L526.559 227.77L526.889 227.66L526.229 225.9L528.649 224.91C529.749 223.957 530.665 223.407 531.399 223.26L534.259 223.7L536.789 228.98L535.249 230.19C535.615 230.703 535.799 231.29 535.799 231.95L534.589 235.25V238.99L533.379 242.4L533.049 245.59L531.399 252.19V253.07C531.399 253.877 531.289 254.573 531.069 255.16L530.849 256.7L530.629 258.68L530.849 262.09L530.519 262.97L531.399 267.81L532.939 271.22V271.55L537.009 273.97L542.949 274.52L544.709 274.41L548.889 273.75H551.859L552.629 273.2L558.679 272.98L559.999 272.21L564.399 272.1L566.379 271.44L573.529 271.11L576.499 270.34C577.232 270.413 578.112 270.45 579.139 270.45L580.239 269.57C581.192 269.203 582.072 269.02 582.879 269.02C585.225 269.02 586.399 269.9 586.399 271.66ZM606.828 207.64C606.828 208.52 606.241 209.327 605.068 210.06V210.28C603.674 211.967 602.464 212.92 601.438 213.14L599.788 215.12L598.688 216.55L596.158 217.21L595.058 218.75L593.298 219.63L590.438 222.16L588.678 220.51L589.008 217.76L590.218 215.78C590.291 214.753 590.878 213.873 591.978 213.14V212.7L592.638 212.26L592.748 210.61L594.508 210.17V209.18L595.828 208.96C596.121 207.493 596.744 206.43 597.698 205.77L598.028 205.55L598.688 204.89L599.568 202.25C604.408 203.423 606.828 205.22 606.828 207.64ZM618.048 265.94C618.048 267.627 617.754 268.69 617.168 269.13L616.618 269.57L616.068 271.11L614.308 271.66C613.794 272.833 613.024 273.75 611.998 274.41L611.008 274.74L609.578 276.28L608.258 276.61C607.744 277.93 606.681 278.627 605.068 278.7C604.921 278.92 604.591 279.36 604.078 280.02C602.978 280.753 601.841 281.193 600.668 281.34L600.118 281.45L599.348 282.44H597.148L595.388 283.76L590.878 280.46L588.788 276.17L588.678 270.78L588.238 269.46L589.558 259.78L589.998 259.34C589.778 258.24 589.668 257.177 589.668 256.15C589.668 255.49 589.888 254.133 590.328 252.08L590.878 249.55C590.731 249.11 590.438 248.633 589.998 248.12L590.658 246.03L590.878 243.5L591.098 243.17C590.804 242.51 590.621 241.777 590.548 240.97C590.621 240.823 590.694 240.64 590.768 240.42C590.841 240.127 590.878 239.907 590.878 239.76C590.658 239.1 590.548 238.477 590.548 237.89C590.548 236.13 591.538 235.323 593.518 235.47L594.838 235.58C595.718 235.14 596.268 234.92 596.488 234.92C597.954 234.92 598.944 235.727 599.458 237.34V237.78C599.751 238.66 599.898 239.503 599.898 240.31C599.898 240.97 599.824 241.447 599.678 241.74L598.908 247.24L599.678 248.78C599.678 250.1 599.238 251.273 598.358 252.3L598.798 253.62L597.368 257.8C597.221 259.633 597.038 261.027 596.818 261.98V264.73L596.158 266.27L596.268 267.37L596.048 269.9L596.268 271.88L597.918 273.2L599.238 272.98L599.458 272.65L600.338 272.76L601.768 272.32L602.978 271.11L603.418 270.45L604.188 270.34L604.408 269.79L604.738 269.35L605.398 269.79L606.498 268.69L607.158 268.8L607.378 268.03H607.598L607.928 267.15L608.918 266.71L611.008 265.72C612.694 264.547 614.344 263.96 615.958 263.96H616.398C617.204 264.473 617.754 265.133 618.048 265.94ZM667.121 264.84L666.131 265.83L666.461 268.47L663.931 271.55V272.87L663.051 273.75L663.711 274.74L661.511 276.83L660.081 279.25L657.771 280.57C656.891 281.45 655.938 281.927 654.911 282L654.031 283.98L652.931 282.99L651.831 284.42C651.831 284.053 651.538 283.577 650.951 282.99L650.181 282.55L649.301 283.54H648.971L648.091 284.64L646.661 283.76L644.351 284.75L642.921 283.43C642.701 283.503 642.371 283.54 641.931 283.54C640.758 283.54 639.291 283.21 637.531 282.55L635.991 281.78L635.441 281.23L633.681 280.57L632.911 278.26C631.665 278.187 630.381 277.893 629.061 277.38L626.751 272.43L627.081 271.66L626.531 270.78V268.8L625.871 267.7L626.311 266.38C626.091 265.573 625.981 264.877 625.981 264.29C625.981 264.143 626.018 263.997 626.091 263.85C626.091 263.63 626.091 263.483 626.091 263.41V260L626.531 258.9L626.641 252.41L626.971 250.87L626.421 250.21L627.411 247.13L627.081 246.14V243.72L627.631 243.06L627.521 241.52L627.081 240.42L628.071 236.9L627.301 232.5L627.631 232.17V230.74C627.705 230.373 627.741 229.787 627.741 228.98C627.741 227.953 627.668 227.147 627.521 226.56L627.741 225.79L626.861 222.6C627.008 222.087 627.265 221.72 627.631 221.5C627.485 221.28 627.301 221.023 627.081 220.73C627.301 220.29 627.411 219.85 627.411 219.41C627.411 218.823 627.155 218.163 626.641 217.43C626.641 216.77 626.751 216.183 626.971 215.67L626.531 214.57L627.081 213.36L625.321 209.62L627.081 209.29V209.07L630.931 207.09L632.911 209.4L633.131 210.5L634.781 211.71L634.671 213.36C634.671 213.947 634.598 214.753 634.451 215.78C634.965 216.293 635.221 216.77 635.221 217.21C635.221 217.43 635.148 217.687 635.001 217.98L635.441 218.42L635.001 220.18L635.771 222.16L635.661 222.93L637.091 223.59L636.321 225.02L635.661 227.88C635.588 228.32 635.441 228.98 635.221 229.86C635.441 230.3 635.551 231.29 635.551 232.83L635.331 233.71L635.661 234.59L635.111 236.35C635.111 237.01 635.001 237.67 634.781 238.33L634.671 238.66C635.038 239.027 635.441 239.503 635.881 240.09L634.671 242.4L635.001 243.72L634.781 244.38C634.781 244.967 634.671 245.663 634.451 246.47L634.561 246.91L634.451 248.12L634.341 249.77L634.011 253.29L635.441 253.62L635.661 250.21L636.431 247.9L636.871 248.12L637.531 246.47C637.825 245.15 638.411 243.903 639.291 242.73C639.438 242.437 639.658 242.143 639.951 241.85L640.281 241.52V241.74L640.721 240.42L642.041 238.99L642.811 238.22L642.921 237.78L643.581 236.9C643.581 235.947 643.911 235.25 644.571 234.81L644.791 233.93L646.221 233.49L646.771 233.16L646.991 232.5L646.881 230.96L648.531 230.63L649.411 230.3L648.641 229.53L650.401 229.09L652.271 227.66H655.681L657.771 228.87L658.431 228.98L660.301 231.62L660.411 232.72L661.291 232.83L661.621 235.14L662.721 236.02V237.67L663.381 238.44L664.151 238.88L664.591 242.4V242.73C664.591 243.097 664.811 243.61 665.251 244.27C665.691 244.857 665.911 245.37 665.911 245.81C665.911 246.25 665.801 246.69 665.581 247.13L666.901 247.68C666.755 248.707 666.498 249.513 666.131 250.1L666.461 252.52C666.755 253.253 666.901 253.803 666.901 254.17C666.901 254.39 666.828 254.793 666.681 255.38L666.571 260.11L667.011 261.1L666.571 262.86L667.121 264.84ZM659.751 256.59L659.531 254.61V252.74L658.761 247.68L657.771 244.05L656.341 240.86L653.921 237.01L653.371 237.23L652.931 237.78H652.381C652.088 239.1 651.281 239.797 649.961 239.87C649.375 240.677 648.605 241.777 647.651 243.17L646.331 244.38L645.891 246.03L644.791 247.35L643.691 250.1C643.691 251.347 643.215 252.703 642.261 254.17L641.601 255.16L641.711 256.92L639.951 259.34L639.071 263.19L638.301 263.63C638.301 263.703 638.338 263.85 638.411 264.07C638.411 264.29 638.411 264.473 638.411 264.62C638.411 265.94 638.081 267.26 637.421 268.58L638.081 270.56L636.761 271.11L636.541 271.55L635.661 272.43L638.081 272.98L639.511 273.75L641.711 273.42L643.691 274.3V275.84L644.131 276.28H646.771L648.531 275.95C648.971 275.29 649.631 274.96 650.511 274.96H650.841L651.721 274.63L651.281 273.31H654.361C655.021 271.403 656.231 269.717 657.991 268.25V267.15L659.311 264.73V262.2L659.641 259.34L659.421 257.58L659.751 256.59ZM719.3 241.08L718.42 244.71L714.35 245.26L712.15 246.69L710.72 246.03L709.18 246.91L707.53 247.57L706.43 248.34V248.78L704.12 249.88L702.58 251.86H701.81C700.637 253.107 699.793 253.877 699.28 254.17L697.74 256.7L697.19 256.92C696.97 257.507 696.713 258.387 696.42 259.56L694.88 260.11L694.22 261.43L693.34 262.53L693.12 264.18L692.24 264.51V266.16L691.91 266.49C692.13 266.857 692.387 267.26 692.68 267.7L691.03 268.36L690.81 269.79L689.71 271.66L690.37 273.09L688.94 275.07C689.087 275.803 689.16 276.317 689.16 276.61C689.16 276.683 689.16 276.83 689.16 277.05C689.087 277.27 689.05 277.453 689.05 277.6L689.27 278.59L691.14 280.57L689.71 283.1L688.39 284.09L685.31 285.63L681.24 283.98V281.45L680.8 280.46L681.13 278.81C680.983 277.637 680.91 276.757 680.91 276.17C680.91 275.95 680.947 275.657 681.02 275.29C681.02 274.923 681.02 274.667 681.02 274.52L680.91 273.42C680.397 272.907 680.14 272.32 680.14 271.66C680.14 271.073 680.397 270.413 680.91 269.68C680.91 269.313 680.837 268.213 680.69 266.38L681.02 266.05L680.69 264.62L680.91 263.3L680.69 262.53L681.02 260L680.36 258.9L680.8 257.69L680.36 256.26C680.433 255.82 680.47 255.233 680.47 254.5C680.47 253.4 680.323 252.667 680.03 252.3L680.47 251.64L680.03 249.66L679.04 248.23L679.59 246.47L679.15 245.81L678.71 243.17V242.29C678.343 241.85 678.16 241.3 678.16 240.64C678.16 239.173 679.773 237.927 683 236.9L685.75 237.45L686.3 239.54L687.4 240.97L687.07 243.94C687.29 245.407 687.547 247.02 687.84 248.78L688.17 250.54C688.243 250.687 688.317 251.09 688.39 251.75C688.39 252.19 688.207 252.667 687.84 253.18L688.17 255.38L687.95 257.8L687.51 258.9L687.84 259.34L688.06 260.44C688.5 259.927 688.757 259.377 688.83 258.79L689.27 257.14C689.49 256.7 689.82 256.37 690.26 256.15L690.7 254.5L692.24 253.62L692.46 252.3L693.67 250.98L694.55 249.33C695.503 248.303 696.42 247.643 697.3 247.35L697.52 247.02L698.51 245.48L699.61 245.26L699.94 244.93L700.38 244.27L701.59 243.61L702.25 242.84L702.91 242.95L703.79 242.51L704.23 241.85L705.55 241.19L707.42 239.98L710.06 239.1C711.087 238.953 711.637 238.88 711.71 238.88C711.71 238.953 711.71 238.99 711.71 238.99C711.637 238.99 711.6 239.027 711.6 239.1H711.71C712.003 239.1 712.443 238.953 713.03 238.66C713.397 238.367 713.91 238.22 714.57 238.22C714.863 238.22 715.377 238.293 716.11 238.44C718.017 238.513 719.08 239.393 719.3 241.08ZM764.249 237.45L763.149 238.88L764.029 241.52L762.599 243.17L762.049 245.48L761.719 246.03L761.939 246.58C761.939 247.607 761.682 248.377 761.169 248.89L760.949 249.22V249.66C761.169 250.173 761.279 250.65 761.279 251.09C761.279 251.457 761.242 251.713 761.169 251.86L761.279 252.3L760.839 253.51L761.169 254.83L760.289 255.71L760.619 257.25L761.279 258.02L760.289 258.9V260.66L759.519 262.42L760.069 264.18L759.409 265.06L760.509 265.83L758.969 268.36L758.859 268.69L759.959 268.91L759.189 271.44V271.88C759.189 272.393 759.152 272.797 759.079 273.09L759.189 273.42L760.949 273.64L762.379 275.84L761.609 277.49L762.819 277.38C763.259 278.26 763.516 279.03 763.589 279.69L761.939 281.34C761.426 281.853 760.692 282.367 759.739 282.88L757.869 283.87L757.319 283.32L756.219 283.98L752.809 280.02V278.15C752.369 276.683 752.149 275.327 752.149 274.08V273.42L751.489 266.93L752.369 262.31L751.709 259.67L749.839 262.75L748.849 265.61L747.969 266.05L746.429 268.47L743.679 271L742.909 272.32L740.489 274.41L739.939 275.84L736.419 278.04L732.679 282.22L730.589 282.66L729.159 283.76C727.326 283.687 725.932 282.99 724.979 281.67C721.679 280.057 719.956 277.747 719.809 274.74L720.359 274.41L720.249 273.75L720.139 272.43L719.479 271L720.139 269.46L720.359 267.15L721.129 263.52C721.129 263.447 721.129 263.3 721.129 263.08C721.056 262.933 721.019 262.787 721.019 262.64C721.019 262.347 721.092 261.98 721.239 261.54C721.166 261.393 721.129 261.1 721.129 260.66C721.129 260.147 721.349 259.303 721.789 258.13L722.559 257.8C722.119 257.433 721.899 257.03 721.899 256.59C721.899 256.297 721.936 256.077 722.009 255.93C721.936 255.71 721.899 255.453 721.899 255.16C721.899 254.28 722.339 253.62 723.219 253.18C723.439 252.447 723.842 251.713 724.429 250.98L723.879 250.1L725.199 248.45V248.01C725.199 246.617 725.676 245.333 726.629 244.16L726.519 242.18L726.959 241.74C726.959 241.667 726.959 241.557 726.959 241.41C726.886 241.263 726.849 241.153 726.849 241.08C726.849 240.64 726.996 240.273 727.289 239.98V239.32C727.582 238.587 728.352 237.487 729.599 236.02C730.846 234.553 731.762 233.27 732.349 232.17L732.899 232.72L734.109 232.17L734.659 231.95L738.289 230.3L746.759 230.74V231.51L749.399 232.06C751.086 232.06 752.186 232.61 752.699 233.71C752.699 233.49 752.736 233.233 752.809 232.94C752.809 232.72 752.809 232.573 752.809 232.5L755.119 234.59L757.209 235.03L761.169 234.04L762.599 236.79L764.249 237.45ZM753.799 243.17L753.359 242.4L752.479 242.18L749.069 239.43L746.869 239.1H745.109L744.889 238.88L744.009 239.21L743.019 238.66H740.159L740.489 239.1L737.959 239.98L737.519 240.53L737.189 240.64C735.869 241.74 734.952 242.657 734.439 243.39L733.669 246.03L733.229 247.02L734.329 248.56L732.459 249.99L732.679 250.43C731.872 251.823 731.469 253.18 731.469 254.5L730.589 255.6V257.58L729.709 258.57L729.489 259.56L729.159 259.78V261.32L728.829 261.87C728.829 262.75 728.756 263.447 728.609 263.96L728.829 264.51L727.839 266.6L728.279 267.26L727.509 268.36L728.279 270.45L727.069 271.99L727.289 274.08V274.41L727.729 274.63L728.279 274.52C728.646 274.153 729.012 273.823 729.379 273.53L729.159 272.65L730.699 272.43L731.029 271.66L737.519 266.38L738.179 266.16L738.949 264.29C739.389 264.143 740.012 263.85 740.819 263.41L741.479 261.65H742.359L742.029 259.78L743.569 259.56C743.716 259.267 743.936 258.9 744.229 258.46C744.596 258.02 744.962 257.617 745.329 257.25L750.939 249.77L751.819 248.12L751.709 247.68L752.479 246.47L752.699 245.26L753.689 244.38L753.799 243.17ZM795.89 207.64C795.89 208.52 795.304 209.327 794.13 210.06V210.28C792.737 211.967 791.527 212.92 790.5 213.14L788.85 215.12L787.75 216.55L785.22 217.21L784.12 218.75L782.36 219.63L779.5 222.16L777.74 220.51L778.07 217.76L779.28 215.78C779.354 214.753 779.94 213.873 781.04 213.14V212.7L781.7 212.26L781.81 210.61L783.57 210.17V209.18L784.89 208.96C785.184 207.493 785.807 206.43 786.76 205.77L787.09 205.55L787.75 204.89L788.63 202.25C793.47 203.423 795.89 205.22 795.89 207.64ZM807.11 265.94C807.11 267.627 806.817 268.69 806.23 269.13L805.68 269.57L805.13 271.11L803.37 271.66C802.857 272.833 802.087 273.75 801.06 274.41L800.07 274.74L798.64 276.28L797.32 276.61C796.807 277.93 795.744 278.627 794.13 278.7C793.984 278.92 793.654 279.36 793.14 280.02C792.04 280.753 790.904 281.193 789.73 281.34L789.18 281.45L788.41 282.44H786.21L784.45 283.76L779.94 280.46L777.85 276.17L777.74 270.78L777.3 269.46L778.62 259.78L779.06 259.34C778.84 258.24 778.73 257.177 778.73 256.15C778.73 255.49 778.95 254.133 779.39 252.08L779.94 249.55C779.794 249.11 779.5 248.633 779.06 248.12L779.72 246.03L779.94 243.5L780.16 243.17C779.867 242.51 779.684 241.777 779.61 240.97C779.684 240.823 779.757 240.64 779.83 240.42C779.904 240.127 779.94 239.907 779.94 239.76C779.72 239.1 779.61 238.477 779.61 237.89C779.61 236.13 780.6 235.323 782.58 235.47L783.9 235.58C784.78 235.14 785.33 234.92 785.55 234.92C787.017 234.92 788.007 235.727 788.52 237.34V237.78C788.814 238.66 788.96 239.503 788.96 240.31C788.96 240.97 788.887 241.447 788.74 241.74L787.97 247.24L788.74 248.78C788.74 250.1 788.3 251.273 787.42 252.3L787.86 253.62L786.43 257.8C786.284 259.633 786.1 261.027 785.88 261.98V264.73L785.22 266.27L785.33 267.37L785.11 269.9L785.33 271.88L786.98 273.2L788.3 272.98L788.52 272.65L789.4 272.76L790.83 272.32L792.04 271.11L792.48 270.45L793.25 270.34L793.47 269.79L793.8 269.35L794.46 269.79L795.56 268.69L796.22 268.8L796.44 268.03H796.66L796.99 267.15L797.98 266.71L800.07 265.72C801.757 264.547 803.407 263.96 805.02 263.96H805.46C806.267 264.473 806.817 265.133 807.11 265.94ZM854.974 241.08L854.094 244.71L850.024 245.26L847.824 246.69L846.394 246.03L844.854 246.91L843.204 247.57L842.104 248.34V248.78L839.794 249.88L838.254 251.86H837.484C836.311 253.107 835.467 253.877 834.954 254.17L833.414 256.7L832.864 256.92C832.644 257.507 832.387 258.387 832.094 259.56L830.554 260.11L829.894 261.43L829.014 262.53L828.794 264.18L827.914 264.51V266.16L827.584 266.49C827.804 266.857 828.061 267.26 828.354 267.7L826.704 268.36L826.484 269.79L825.384 271.66L826.044 273.09L824.614 275.07C824.761 275.803 824.834 276.317 824.834 276.61C824.834 276.683 824.834 276.83 824.834 277.05C824.761 277.27 824.724 277.453 824.724 277.6L824.944 278.59L826.814 280.57L825.384 283.1L824.064 284.09L820.984 285.63L816.914 283.98V281.45L816.474 280.46L816.804 278.81C816.657 277.637 816.584 276.757 816.584 276.17C816.584 275.95 816.621 275.657 816.694 275.29C816.694 274.923 816.694 274.667 816.694 274.52L816.584 273.42C816.071 272.907 815.814 272.32 815.814 271.66C815.814 271.073 816.071 270.413 816.584 269.68C816.584 269.313 816.511 268.213 816.364 266.38L816.694 266.05L816.364 264.62L816.584 263.3L816.364 262.53L816.694 260L816.034 258.9L816.474 257.69L816.034 256.26C816.107 255.82 816.144 255.233 816.144 254.5C816.144 253.4 815.997 252.667 815.704 252.3L816.144 251.64L815.704 249.66L814.714 248.23L815.264 246.47L814.824 245.81L814.384 243.17V242.29C814.017 241.85 813.834 241.3 813.834 240.64C813.834 239.173 815.447 237.927 818.674 236.9L821.424 237.45L821.974 239.54L823.074 240.97L822.744 243.94C822.964 245.407 823.221 247.02 823.514 248.78L823.844 250.54C823.917 250.687 823.991 251.09 824.064 251.75C824.064 252.19 823.881 252.667 823.514 253.18L823.844 255.38L823.624 257.8L823.184 258.9L823.514 259.34L823.734 260.44C824.174 259.927 824.431 259.377 824.504 258.79L824.944 257.14C825.164 256.7 825.494 256.37 825.934 256.15L826.374 254.5L827.914 253.62L828.134 252.3L829.344 250.98L830.224 249.33C831.177 248.303 832.094 247.643 832.974 247.35L833.194 247.02L834.184 245.48L835.284 245.26L835.614 244.93L836.054 244.27L837.264 243.61L837.924 242.84L838.584 242.95L839.464 242.51L839.904 241.85L841.224 241.19L843.094 239.98L845.734 239.1C846.761 238.953 847.311 238.88 847.384 238.88C847.384 238.953 847.384 238.99 847.384 238.99C847.311 238.99 847.274 239.027 847.274 239.1H847.384C847.677 239.1 848.117 238.953 848.704 238.66C849.071 238.367 849.584 238.22 850.244 238.22C850.537 238.22 851.051 238.293 851.784 238.44C853.691 238.513 854.754 239.393 854.974 241.08ZM874.953 207.64C874.953 208.52 874.366 209.327 873.193 210.06V210.28C871.799 211.967 870.589 212.92 869.563 213.14L867.913 215.12L866.813 216.55L864.283 217.21L863.183 218.75L861.423 219.63L858.563 222.16L856.803 220.51L857.133 217.76L858.343 215.78C858.416 214.753 859.003 213.873 860.103 213.14V212.7L860.763 212.26L860.873 210.61L862.633 210.17V209.18L863.953 208.96C864.246 207.493 864.869 206.43 865.823 205.77L866.153 205.55L866.813 204.89L867.693 202.25C872.533 203.423 874.953 205.22 874.953 207.64ZM886.173 265.94C886.173 267.627 885.879 268.69 885.293 269.13L884.743 269.57L884.193 271.11L882.433 271.66C881.919 272.833 881.149 273.75 880.123 274.41L879.133 274.74L877.703 276.28L876.383 276.61C875.869 277.93 874.806 278.627 873.193 278.7C873.046 278.92 872.716 279.36 872.203 280.02C871.103 280.753 869.966 281.193 868.793 281.34L868.243 281.45L867.473 282.44H865.273L863.513 283.76L859.003 280.46L856.913 276.17L856.803 270.78L856.363 269.46L857.683 259.78L858.123 259.34C857.903 258.24 857.793 257.177 857.793 256.15C857.793 255.49 858.013 254.133 858.453 252.08L859.003 249.55C858.856 249.11 858.563 248.633 858.123 248.12L858.783 246.03L859.003 243.5L859.223 243.17C858.929 242.51 858.746 241.777 858.673 240.97C858.746 240.823 858.819 240.64 858.893 240.42C858.966 240.127 859.003 239.907 859.003 239.76C858.783 239.1 858.673 238.477 858.673 237.89C858.673 236.13 859.663 235.323 861.643 235.47L862.963 235.58C863.843 235.14 864.393 234.92 864.613 234.92C866.079 234.92 867.069 235.727 867.583 237.34V237.78C867.876 238.66 868.023 239.503 868.023 240.31C868.023 240.97 867.949 241.447 867.803 241.74L867.033 247.24L867.803 248.78C867.803 250.1 867.363 251.273 866.483 252.3L866.923 253.62L865.493 257.8C865.346 259.633 865.163 261.027 864.943 261.98V264.73L864.283 266.27L864.393 267.37L864.173 269.9L864.393 271.88L866.043 273.2L867.363 272.98L867.583 272.65L868.463 272.76L869.893 272.32L871.103 271.11L871.543 270.45L872.313 270.34L872.533 269.79L872.863 269.35L873.523 269.79L874.623 268.69L875.283 268.8L875.503 268.03H875.723L876.053 267.15L877.043 266.71L879.133 265.72C880.819 264.547 882.469 263.96 884.083 263.96H884.523C885.329 264.473 885.879 265.133 886.173 265.94ZM926.886 272.98C926.886 273.86 926.226 274.96 924.906 276.28C924.54 277.453 923.99 278.407 923.256 279.14L922.596 279.25L921.386 281.34L919.406 281.67L917.316 282.99L916.216 284.97L915.006 284.75C914.2 285.117 913.54 285.337 913.026 285.41L912.366 286.4C912.146 286.327 911.816 286.29 911.376 286.29C910.423 286.29 909.506 286.95 908.626 288.27L907.086 286.95C906.793 287.023 906.353 287.06 905.766 287.06C904.813 287.06 904.006 286.913 903.346 286.62H901.476L900.596 286.07C897.81 285.63 896.05 284.567 895.316 282.88V282.55L893.996 281.89L893.336 280.02L892.016 279.14V277.49L890.696 272.65L890.916 268.69L891.356 266.93V264.62L891.906 262.86L891.796 262.09L892.566 260.77L892.346 260.99C892.346 260.33 892.53 259.633 892.896 258.9V258.35L892.566 255.71C892.566 254.463 893.116 253.363 894.216 252.41C894.29 252.263 894.326 252.043 894.326 251.75C894.326 251.457 894.18 250.87 893.886 249.99C893.666 249.037 893.556 248.377 893.556 248.01C893.556 247.13 893.776 246.213 894.216 245.26C894.803 246.14 895.646 246.58 896.746 246.58H897.076C897.223 246.287 897.553 245.957 898.066 245.59C898.653 243.757 899.46 242.217 900.486 240.97L900.926 240.53C900.926 240.237 901.146 239.393 901.586 238H902.466L902.686 237.45L903.566 237.23C903.933 236.643 904.153 236.313 904.226 236.24C904.373 236.093 905.18 235.617 906.646 234.81C906.94 234.297 907.38 233.82 907.966 233.38C908.26 233.233 908.626 233.087 909.066 232.94L909.506 232.28C911.486 231.62 912.733 231.29 913.246 231.29C913.833 231.29 914.383 231.437 914.896 231.73L915.446 231.62L916.216 232.06C917.096 232.72 917.976 233.27 918.856 233.71L920.726 235.14V235.58C922.413 236.9 923.256 238.77 923.256 241.19L922.926 242.29L923.256 245.92L922.266 246.58L921.166 249.44L919.076 251.75L918.966 253.51C916.62 255.197 914.456 256.553 912.476 257.58C911.816 258.607 910.79 259.12 909.396 259.12H909.066L906.976 260.44H905.216L902.576 261.54L900.596 260.55H900.376C900.23 261.137 900.083 262.017 899.936 263.19L899.056 263.85L898.946 265.17L898.286 267.04C898.506 268.8 898.616 269.937 898.616 270.45L898.176 270.78C898.176 271.733 898.14 272.43 898.066 272.87C898.066 272.943 898.03 273.053 897.956 273.2C897.956 273.347 897.956 273.457 897.956 273.53C897.956 274.117 898.25 274.593 898.836 274.96C899.056 275.84 899.423 276.39 899.936 276.61L900.706 277.27L903.126 277.93V278.26L904.006 278.48L907.746 278.7L909.946 278.37L911.046 277.6L911.706 277.38L912.806 275.73L913.356 275.62L916.106 274.74C916.4 274.227 916.876 273.787 917.536 273.42L917.866 272.87C919.333 272.577 920.176 271.807 920.396 270.56C921.423 269.533 922.743 269.02 924.356 269.02H924.796C926.19 270.633 926.886 271.953 926.886 272.98ZM915.996 241.3C915.996 241.08 915.886 240.64 915.666 239.98L915.116 239.87L914.896 239.98C914.823 239.98 914.676 239.98 914.456 239.98C914.31 240.053 914.163 240.09 914.016 240.09C913.943 240.09 913.833 240.053 913.686 239.98C913.54 239.98 913.43 239.98 913.356 239.98L912.256 240.75L911.266 240.86L910.716 241.08L908.846 243.5L907.636 244.38L905.876 247.46L904.886 248.12C904.666 249.367 904.153 250.43 903.346 251.31L902.906 252.08C903.713 251.567 904.63 251.31 905.656 251.31L906.426 250.98L906.756 249.99L908.296 250.1L909.176 248.78H909.836L911.046 249.22L911.596 247.57H912.366V246.36L913.796 246.03L914.126 245.7L914.346 244.71L915.776 242.62C915.923 242.253 915.996 241.813 915.996 241.3ZM750.777 372.33L749.237 375.19L746.157 376.07C744.837 376.803 743.664 377.243 742.637 377.39L741.317 378.27C741.17 378.27 740.914 378.307 740.547 378.38C740.18 378.38 739.887 378.38 739.667 378.38C736.88 378.38 734.717 377.463 733.177 375.63L732.517 374.86L731.747 374.75C730.28 374.53 729.144 373.907 728.337 372.88C727.824 372 727.274 371.083 726.687 370.13L726.137 369.36L725.367 366.61L724.047 364.74L723.167 361.88L722.177 359.9L720.417 350V346.59L719.757 347.25L718.107 348.35C718.034 349.597 717.484 350.22 716.457 350.22L715.357 351.43L713.817 352.31L712.717 353.41C712.424 354.363 711.764 355.06 710.737 355.5L709.417 356.93L707.657 357.7L706.337 359.35L697.427 365.62L693.577 367.93L691.157 369.69L689.617 370.13L686.867 372.33L684.667 373.32L681.037 373.21L678.947 370.9L677.407 369.91V367.93L676.527 367.16L675.427 360.45L675.097 359.57L674.657 354.84L675.317 352.75L674.987 351.43L675.317 349.78L674.877 344.94L674.327 344.06C674.474 342.887 674.877 342.007 675.537 341.42L675.207 340.98L675.647 338.67L674.877 337.24V334.93L675.647 333.83L675.317 332.18L676.087 329.1L675.537 325.25L675.977 323.71L675.537 321.62L676.637 320.41C677.077 319.603 677.774 319.2 678.727 319.2H679.607L682.247 319.97C682.98 320.263 683.53 320.887 683.897 321.84C684.484 322.207 685.07 323.16 685.657 324.7L684.557 326.24C683.604 329.833 683.127 332.143 683.127 333.17V333.5C683.274 334.527 683.677 335.333 684.337 335.92C683.31 340.247 682.797 343.767 682.797 346.48V347.25L683.787 348.57L683.347 350.99L683.127 354.29L683.787 356.27L682.137 357.7C683.31 360.413 683.897 362.32 683.897 363.42H686.867C687.014 363.127 687.234 362.797 687.527 362.43L689.177 362.32L690.497 360.78C691.23 360.12 691.964 359.607 692.697 359.24C693.137 358.653 693.797 358.25 694.677 358.03L697.537 356.27L697.427 355.17L699.957 354.73L701.827 352.75L701.937 352.53L702.157 352.42L702.927 351.54L703.807 351.98L704.907 351.1L705.787 348.9L706.667 349.01C707.4 348.423 708.207 347.873 709.087 347.36L709.417 346.92L710.077 346.26V344.5L711.947 343.95L713.157 342.52L714.367 341.97L714.587 340.43H715.357C715.65 340.063 716.127 339.733 716.787 339.44V338.34L718.217 337.9L720.087 334.38L720.967 331.74L721.297 329.21L722.507 327.34L722.727 326.02L722.947 323.16L723.717 321.18L726.467 318.87L729.657 320.52L730.427 321.4C731.6 322.133 732.664 322.977 733.617 323.93L732.627 325.69L732.737 327.12C732.517 328.513 731.857 329.467 730.757 329.98L729.987 331.41V333.17L729.217 334.93L729.327 337.9C729.034 338.34 728.704 338.56 728.337 338.56C728.264 338.56 728.154 338.523 728.007 338.45C729.107 339.11 729.657 340.173 729.657 341.64C729.657 342.153 729.62 342.52 729.547 342.74L728.667 342.85L728.997 343.95L728.667 346.81L729.437 348.57L729.107 350.99C729.18 351.283 729.217 351.76 729.217 352.42C729.804 353.153 730.097 353.887 730.097 354.62C730.097 354.693 730.097 354.84 730.097 355.06C730.024 355.207 729.987 355.353 729.987 355.5L730.427 356.82C730.94 359.167 731.82 361.733 733.067 364.52L734.167 366.17L734.497 366.83L735.597 367.93L738.127 370.35L739.887 370.68L740.547 369.58L742.307 370.24L742.747 370.02C743.627 369.36 744.617 369.03 745.717 369.03C746.23 369.03 747.66 369.213 750.007 369.58L750.777 372.33ZM768.08 319.97L767.75 320.08L767.09 324.26L767.2 326.68L767.64 327.01L766.54 329.54L766.76 331.41L765.77 333.5C765.477 334.453 765.22 335.223 765 335.81C765.22 336.25 765.33 336.727 765.33 337.24C765.33 337.827 765.184 338.377 764.89 338.89L765.88 342.63H764.56L764.45 342.85L765.22 344.39L764.45 347.36H764.12L763.57 349.56C763.937 349.56 764.194 349.523 764.34 349.45L764.01 351.65L764.78 353.63L764.01 355.17L764.12 358.58L763.79 360.01C764.45 360.743 764.78 361.44 764.78 362.1C764.78 362.54 764.597 363.017 764.23 363.53C763.937 364.043 763.79 364.373 763.79 364.52C763.79 364.52 764.12 364.777 764.78 365.29C765.44 365.73 766.064 366.353 766.65 367.16L765.33 368.26L766.98 369.14C766.687 372.073 765.624 373.54 763.79 373.54C761.957 373.54 760.747 372.733 760.16 371.12L759.61 370.35C758.437 368.737 757.85 367.6 757.85 366.94L755.65 364.63L756.64 363.53L755.98 362.65L756.2 360.34L755.98 359.57C755.76 358.837 755.65 358.25 755.65 357.81C755.65 357.37 755.76 356.893 755.98 356.38L755.76 355.5L755.65 351.98L755.98 351.54L755.76 345.27L756.64 339.99L756.2 334.49L756.53 333.94L755.98 333.61L756.64 331.41V330.64L755.87 330.53L756.42 328.11C755.54 327.083 754.99 325.653 754.77 323.82H756.2L757.52 320.52L757.74 320.74L758.4 318.98L757.85 319.64V316.67H759.72L760.05 315.68L762.14 314.91C763.974 315.057 765.404 315.35 766.43 315.79C767.53 316.817 768.08 318.027 768.08 319.42V319.97Z" fill="white"/>
<path d="M446.18 868.575C447.05 872.342 450.809 874.691 454.575 873.82L515.959 859.641C519.726 858.771 522.074 855.012 521.204 851.246C520.334 847.479 516.575 845.13 512.808 846.001L458.245 858.604L445.641 804.041C444.771 800.274 441.012 797.926 437.246 798.796C433.479 799.666 431.13 803.425 432.001 807.192L446.18 868.575ZM721 438L715.063 434.291L447.063 863.291L453 867L458.937 870.709L726.937 441.709L721 438Z" fill="black"/>
<path d="M1002.47 890.831C1006.25 891.675 1009.99 889.3 1010.83 885.527L1024.58 824.046C1025.42 820.273 1023.05 816.53 1019.27 815.687C1015.5 814.843 1011.76 817.218 1010.92 820.991L998.696 875.641L944.046 863.422C940.273 862.578 936.53 864.953 935.687 868.726C934.843 872.498 937.218 876.241 940.991 877.084L1002.47 890.831ZM721 438L715.089 441.75L998.089 887.75L1004 884L1009.91 880.25L726.911 434.25L721 438Z" fill="black"/>
</svg>
